<svg width="78" height="64" viewBox="0 0 78 64" fill="none" xmlns="http://www.w3.org/2000/svg">
<path d="M45.032 46.16V58H44.312V46.16H45.032ZM51.4954 58.128C50.6847 58.128 49.954 57.9467 49.3034 57.584C48.6527 57.2213 48.1407 56.704 47.7674 56.032C47.4047 55.3493 47.2234 54.5547 47.2234 53.648C47.2234 52.752 47.41 51.968 47.7834 51.296C48.1567 50.6133 48.6687 50.096 49.3194 49.744C49.9807 49.3813 50.7167 49.2 51.5274 49.2C52.338 49.2 53.0687 49.3813 53.7194 49.744C54.37 50.096 54.8767 50.608 55.2394 51.28C55.6127 51.952 55.7994 52.7413 55.7994 53.648C55.7994 54.5547 55.6127 55.3493 55.2394 56.032C54.866 56.704 54.3487 57.2213 53.6874 57.584C53.0367 57.9467 52.306 58.128 51.4954 58.128ZM51.4954 57.488C52.1247 57.488 52.7114 57.3493 53.2554 57.072C53.81 56.784 54.2527 56.352 54.5834 55.776C54.914 55.2 55.0794 54.4907 55.0794 53.648C55.0794 52.816 54.914 52.112 54.5834 51.536C54.2527 50.96 53.8154 50.5333 53.2714 50.256C52.7274 49.968 52.1407 49.824 51.5114 49.824C50.882 49.824 50.2954 49.968 49.7514 50.256C49.218 50.5333 48.786 50.96 48.4554 51.536C48.1247 52.112 47.9594 52.816 47.9594 53.648C47.9594 54.4907 48.1194 55.2 48.4394 55.776C48.77 56.352 49.202 56.784 49.7354 57.072C50.2794 57.3493 50.866 57.488 51.4954 57.488ZM61.7279 49.2C62.6452 49.2 63.4239 49.424 64.0639 49.872C64.7039 50.3093 65.1519 50.8747 65.4079 51.568V49.312H66.1279V58.272C66.1279 59.072 65.9519 59.7707 65.5999 60.368C65.2479 60.976 64.7732 61.44 64.1759 61.76C63.5785 62.0907 62.9119 62.256 62.1759 62.256C61.0879 62.256 60.1865 61.9947 59.4719 61.472C58.7572 60.9493 58.2879 60.2453 58.0639 59.36H58.7839C58.9972 60.0533 59.3972 60.6027 59.9839 61.008C60.5705 61.424 61.3012 61.632 62.1759 61.632C62.7839 61.632 63.3332 61.4933 63.8239 61.216C64.3145 60.9493 64.6985 60.56 64.9759 60.048C65.2639 59.5467 65.4079 58.9547 65.4079 58.272V55.728C65.1519 56.4213 64.6985 56.9973 64.0479 57.456C63.4079 57.904 62.6345 58.128 61.7279 58.128C60.9172 58.128 60.1919 57.9467 59.5519 57.584C58.9225 57.2107 58.4265 56.688 58.0639 56.016C57.7119 55.3333 57.5359 54.544 57.5359 53.648C57.5359 52.752 57.7119 51.968 58.0639 51.296C58.4265 50.624 58.9225 50.1067 59.5519 49.744C60.1919 49.3813 60.9172 49.2 61.7279 49.2ZM65.4079 53.648C65.4079 52.8907 65.2479 52.224 64.9279 51.648C64.6185 51.0613 64.1919 50.6133 63.6479 50.304C63.1039 49.984 62.4959 49.824 61.8239 49.824C61.1199 49.824 60.5012 49.9787 59.9679 50.288C59.4345 50.5867 59.0185 51.024 58.7199 51.6C58.4212 52.176 58.2719 52.8587 58.2719 53.648C58.2719 54.4373 58.4212 55.12 58.7199 55.696C59.0185 56.272 59.4345 56.7147 59.9679 57.024C60.5119 57.3333 61.1305 57.488 61.8239 57.488C62.4959 57.488 63.1039 57.3333 63.6479 57.024C64.2025 56.704 64.6345 56.256 64.9439 55.68C65.2532 55.0933 65.4079 54.416 65.4079 53.648ZM72.5735 58.128C71.7628 58.128 71.0322 57.9467 70.3815 57.584C69.7308 57.2213 69.2188 56.704 68.8455 56.032C68.4828 55.3493 68.3015 54.5547 68.3015 53.648C68.3015 52.752 68.4882 51.968 68.8615 51.296C69.2348 50.6133 69.7468 50.096 70.3975 49.744C71.0588 49.3813 71.7948 49.2 72.6055 49.2C73.4162 49.2 74.1468 49.3813 74.7975 49.744C75.4482 50.096 75.9548 50.608 76.3175 51.28C76.6908 51.952 76.8775 52.7413 76.8775 53.648C76.8775 54.5547 76.6908 55.3493 76.3175 56.032C75.9442 56.704 75.4268 57.2213 74.7655 57.584C74.1148 57.9467 73.3842 58.128 72.5735 58.128ZM72.5735 57.488C73.2028 57.488 73.7895 57.3493 74.3335 57.072C74.8882 56.784 75.3308 56.352 75.6615 55.776C75.9922 55.2 76.1575 54.4907 76.1575 53.648C76.1575 52.816 75.9922 52.112 75.6615 51.536C75.3308 50.96 74.8935 50.5333 74.3495 50.256C73.8055 49.968 73.2188 49.824 72.5895 49.824C71.9602 49.824 71.3735 49.968 70.8295 50.256C70.2962 50.5333 69.8642 50.96 69.5335 51.536C69.2028 52.112 69.0375 52.816 69.0375 53.648C69.0375 54.4907 69.1975 55.2 69.5175 55.776C69.8482 56.352 70.2802 56.784 70.8135 57.072C71.3575 57.3493 71.9442 57.488 72.5735 57.488Z" fill="white"/>
<path d="M12.16 44.28C10.2933 44.28 8.61333 43.96 7.12 43.32C5.62667 42.6533 4.45333 41.72 3.6 40.52C2.74667 39.32 2.32 37.92 2.32 36.32H7.2C7.30667 37.52 7.77333 38.5067 8.6 39.28C9.45333 40.0533 10.64 40.44 12.16 40.44C13.7333 40.44 14.96 40.0667 15.84 39.32C16.72 38.5467 17.16 37.56 17.16 36.36C17.16 35.4267 16.88 34.6667 16.32 34.08C15.7867 33.4933 15.1067 33.04 14.28 32.72C13.48 32.4 12.36 32.0533 10.92 31.68C9.10667 31.2 7.62667 30.72 6.48 30.24C5.36 29.7333 4.4 28.96 3.6 27.92C2.8 26.88 2.4 25.4933 2.4 23.76C2.4 22.16 2.8 20.76 3.6 19.56C4.4 18.36 5.52 17.44 6.96 16.8C8.4 16.16 10.0667 15.84 11.96 15.84C14.6533 15.84 16.8533 16.52 18.56 17.88C20.2933 19.2133 21.2533 21.0533 21.44 23.4H16.4C16.32 22.3867 15.84 21.52 14.96 20.8C14.08 20.08 12.92 19.72 11.48 19.72C10.1733 19.72 9.10667 20.0533 8.28 20.72C7.45333 21.3867 7.04 22.3467 7.04 23.6C7.04 24.4533 7.29333 25.16 7.8 25.72C8.33333 26.2533 9 26.68 9.8 27C10.6 27.32 11.6933 27.6667 13.08 28.04C14.92 28.5467 16.4133 29.0533 17.56 29.56C18.7333 30.0667 19.72 30.8533 20.52 31.92C21.3467 32.96 21.76 34.36 21.76 36.12C21.76 37.5333 21.3733 38.8667 20.6 40.12C19.8533 41.3733 18.7467 42.3867 17.28 43.16C15.84 43.9067 14.1333 44.28 12.16 44.28ZM47.1006 21.96V44H42.5406V41.4C41.8206 42.3067 40.874 43.0267 39.7006 43.56C38.554 44.0667 37.3273 44.32 36.0206 44.32C34.2873 44.32 32.7273 43.96 31.3406 43.24C29.9806 42.52 28.9006 41.4533 28.1006 40.04C27.3273 38.6267 26.9406 36.92 26.9406 34.92V21.96H31.4606V34.24C31.4606 36.2133 31.954 37.7333 32.9406 38.8C33.9273 39.84 35.274 40.36 36.9806 40.36C38.6873 40.36 40.034 39.84 41.0206 38.8C42.034 37.7333 42.5406 36.2133 42.5406 34.24V21.96H47.1006ZM51.5972 32.88C51.5972 30.6667 52.0505 28.7067 52.9572 27C53.8905 25.2933 55.1439 23.9733 56.7172 23.04C58.3172 22.08 60.0772 21.6 61.9972 21.6C63.7305 21.6 65.2372 21.9467 66.5172 22.64C67.8239 23.3067 68.8639 24.1467 69.6372 25.16V21.96H74.2372V44H69.6372V40.72C68.8639 41.76 67.8105 42.6267 66.4772 43.32C65.1439 44.0133 63.6239 44.36 61.9172 44.36C60.0239 44.36 58.2905 43.88 56.7172 42.92C55.1439 41.9333 53.8905 40.5733 52.9572 38.84C52.0505 37.08 51.5972 35.0933 51.5972 32.88ZM69.6372 32.96C69.6372 31.44 69.3172 30.12 68.6772 29C68.0639 27.88 67.2505 27.0267 66.2372 26.44C65.2239 25.8533 64.1305 25.56 62.9572 25.56C61.7839 25.56 60.6905 25.8533 59.6772 26.44C58.6639 27 57.8372 27.84 57.1972 28.96C56.5839 30.0533 56.2772 31.36 56.2772 32.88C56.2772 34.4 56.5839 35.7333 57.1972 36.88C57.8372 38.0267 58.6639 38.9067 59.6772 39.52C60.7172 40.1067 61.8105 40.4 62.9572 40.4C64.1305 40.4 65.2239 40.1067 66.2372 39.52C67.2505 38.9333 68.0639 38.08 68.6772 36.96C69.3172 35.8133 69.6372 34.48 69.6372 32.96Z" fill="white"/>
</svg>
